<mxfile host="app.diagrams.net" modified="2023-10-12T22:58:40.917Z" agent="Mozilla/5.0 (Windows NT 10.0; Win64; x64) AppleWebKit/537.36 (KHTML, like Gecko) Chrome/118.0.0.0 Safari/537.36" version="22.0.0" etag="ClweNDUVmoYlxu5L0gdg" type="github">
  <diagram name="Page-1" id="9RUwIs9vGuV4pDnZz9da">
    <mxGraphModel>
      <root>
        <mxCell id="0" />
        <mxCell id="1" parent="0" />
      </root>
    </mxGraphModel>
  </diagram>
</mxfile>
